<svg width="69" height="60" viewBox="0 0 69 60" fill="none" xmlns="http://www.w3.org/2000/svg">
<rect x="27.8085" y="1" width="15.8723" height="14.5957" rx="2" fill="white" stroke="#ED0876" stroke-width="2"/>
<rect x="11.2128" y="22.7021" width="14.5957" height="14.5957" rx="2" fill="white" stroke="#ED0876" stroke-width="2"/>
<rect x="26.5319" y="44.4043" width="15.8723" height="14.5957" rx="2" fill="white" stroke="#ED0876" stroke-width="2"/>
<rect x="52.0638" y="44.4043" width="15.8723" height="14.5957" rx="2" fill="white" stroke="#ED0876" stroke-width="2"/>
<rect x="1" y="44.4043" width="14.5957" height="14.5957" rx="2" fill="white" stroke="#ED0876" stroke-width="2"/>
<rect x="43.1277" y="22.7021" width="14.5957" height="14.5957" rx="2" fill="white" stroke="#ED0876" stroke-width="2"/>
<path d="M17.8723 22.3404V19.1489H50.4255V22.3404" stroke="#ED0876"/>
<path d="M35.7447 15.3192V19.1489" stroke="#ED0876"/>
<path d="M8.29788 44.0426V40.8511H60V44.0426" stroke="#ED0876"/>
<path d="M51.0638 37.6596V40.2128M19.1489 37.6596V40.2128" stroke="#ED0876"/>
<path d="M33.8298 40.8511V44.0426" stroke="#ED0876"/>
<path d="M31.2766 7.02127V5.46808C31.2766 4.91579 31.7243 4.46808 32.2766 4.46808H34.4681" stroke="#ED0876"/>
<path d="M17.234 26.1702H15.6808C15.1286 26.1702 14.6808 26.6179 14.6808 27.1702V28.7234" stroke="#ED0876"/>
<path d="M49.1489 26.1702H47.5957C47.0434 26.1702 46.5957 26.6179 46.5957 27.1702V28.7234" stroke="#ED0876"/>
<path d="M58.7234 47.8723H56.5319C55.9796 47.8723 55.5319 48.3201 55.5319 48.8723V51.0638" stroke="#ED0876"/>
<path d="M32.5532 47.8723H31C30.4477 47.8723 30 48.3201 30 48.8723V50.4255" stroke="#ED0876"/>
<path d="M7.02127 47.8723H5.46808C4.91579 47.8723 4.46808 48.3201 4.46808 48.8723V51.0638" stroke="#ED0876"/>
</svg>
