<svg width="68" height="69" viewBox="0 0 68 69" fill="none" xmlns="http://www.w3.org/2000/svg">
<rect x="16.8228" y="1.25345" width="52.0222" height="52.0222" rx="1" transform="rotate(17.4146 16.8228 1.25345)" fill="white" stroke="#ED0876" stroke-width="2"/>
<rect x="5.82862" y="36.3048" width="52.0222" height="15.2871" rx="1" transform="rotate(17.4146 5.82862 36.3048)" fill="#ED0876" stroke="#ED0876" stroke-width="2"/>
<path d="M9.94415 34.2829L53.2428 47.864L55.1259 41.8604L53.2556 33.4805L40.498 37.2722L29.2223 19.9475L12.8544 25.0046L9.94415 34.2829Z" fill="#3200FC"/>
<circle cx="44.8929" cy="20.3333" r="4.32177" transform="rotate(17.4146 44.8929 20.3333)" fill="#ED0876"/>
<rect x="1.00003" y="15.0457" width="52.0222" height="52.0222" rx="1" fill="white" stroke="#ED0876" stroke-width="2"/>
<rect x="1.00003" y="51.7809" width="52.0222" height="15.2871" rx="1" fill="#ED0876" stroke="#ED0876" stroke-width="2"/>
<path d="M4.32178 48.62H49.7004V42.328L45.4078 34.892L34.3698 42.328L18.4259 29.172L4.32178 38.896V48.62Z" fill="#3200FC"/>
<circle cx="33.4938" cy="24.8502" r="4.32177" fill="#3200FC"/>
</svg>
